<svg xmlns="http://www.w3.org/2000/svg" xmlns:xlink="http://www.w3.org/1999/xlink" width="500" zoomAndPan="magnify" viewBox="0 0 375 374.999991" height="500" preserveAspectRatio="xMidYMid meet" version="1.0"><defs><clipPath id="76d1d0a9d7"><path d="M 138.9375 201.515625 L 233.949219 201.515625 L 233.949219 364.820312 L 138.9375 364.820312 Z M 138.9375 201.515625 " clip-rule="nonzero"/></clipPath><clipPath id="3d586fe49c"><path d="M 233.949219 317.417969 C 233.949219 343.566406 212.679688 364.765625 186.445312 364.765625 C 160.207031 364.765625 138.9375 343.566406 138.9375 317.417969 C 138.9375 243.554688 186.445312 201.886719 186.445312 201.886719 C 186.445312 201.886719 233.949219 245.449219 233.949219 317.417969 Z M 233.949219 317.417969 " clip-rule="nonzero"/></clipPath><clipPath id="abacbac786"><path d="M 0.9375 0.839844 L 95.949219 0.839844 L 95.949219 163.800781 L 0.9375 163.800781 Z M 0.9375 0.839844 " clip-rule="nonzero"/></clipPath><clipPath id="0f6e038acb"><path d="M 95.949219 116.417969 C 95.949219 142.566406 74.679688 163.765625 48.445312 163.765625 C 22.207031 163.765625 0.9375 142.566406 0.9375 116.417969 C 0.9375 42.554688 48.445312 0.886719 48.445312 0.886719 C 48.445312 0.886719 95.949219 44.449219 95.949219 116.417969 Z M 95.949219 116.417969 " clip-rule="nonzero"/></clipPath><clipPath id="f2dcc90de7"><rect x="0" width="96" y="0" height="164"/></clipPath><clipPath id="1343de93e0"><path d="M 209 183 L 358 183 L 358 294 L 209 294 Z M 209 183 " clip-rule="nonzero"/></clipPath><clipPath id="d6b7f5bbf7"><path d="M 186.121094 229.699219 L 233.144531 147.140625 L 375.042969 227.964844 L 328.019531 310.523438 Z M 186.121094 229.699219 " clip-rule="nonzero"/></clipPath><clipPath id="0850c7e92e"><path d="M 333.855469 204.503906 C 356.578125 217.445312 364.472656 246.417969 351.484375 269.21875 C 338.5 292.015625 309.550781 300.003906 286.828125 287.0625 C 222.648438 250.503906 209.953125 188.601562 209.953125 188.601562 C 209.953125 188.601562 271.320312 168.882812 333.855469 204.503906 Z M 333.855469 204.503906 " clip-rule="nonzero"/></clipPath><clipPath id="52ae6949da"><path d="M 0.761719 0 L 149 0 L 149 111 L 0.761719 111 Z M 0.761719 0 " clip-rule="nonzero"/></clipPath><clipPath id="1ef753ab1b"><path d="M -22.878906 46.699219 L 24.144531 -35.859375 L 166.042969 44.964844 L 119.019531 127.523438 Z M -22.878906 46.699219 " clip-rule="nonzero"/></clipPath><clipPath id="a307917b65"><path d="M 124.855469 21.503906 C 147.578125 34.445312 155.472656 63.417969 142.484375 86.21875 C 129.5 109.015625 100.550781 117.003906 77.828125 104.0625 C 13.648438 67.503906 0.953125 5.601562 0.953125 5.601562 C 0.953125 5.601562 62.320312 -14.117188 124.855469 21.503906 Z M 124.855469 21.503906 " clip-rule="nonzero"/></clipPath><clipPath id="59e66ec360"><rect x="0" width="149" y="0" height="111"/></clipPath><clipPath id="bd7f8e00f3"><path d="M 204 39 L 335 39 L 335 169 L 204 169 Z M 204 39 " clip-rule="nonzero"/></clipPath><clipPath id="a6a5cd695d"><path d="M 238.257812 202.144531 L 171.074219 134.960938 L 286.546875 19.488281 L 353.730469 86.671875 Z M 238.257812 202.144531 " clip-rule="nonzero"/></clipPath><clipPath id="22b9d75a99"><path d="M 253.027344 53.007812 C 271.519531 34.515625 301.546875 34.566406 320.101562 53.117188 C 338.652344 71.671875 338.703125 101.699219 320.210938 120.191406 C 267.980469 172.421875 204.925781 168.292969 204.925781 168.292969 C 204.925781 168.292969 202.136719 103.898438 253.027344 53.007812 Z M 253.027344 53.007812 " clip-rule="nonzero"/></clipPath><clipPath id="e029cdc82e"><path d="M 0 0 L 131 0 L 131 130 L 0 130 Z M 0 0 " clip-rule="nonzero"/></clipPath><clipPath id="28ecc0c03b"><path d="M 34.257812 163.144531 L -32.925781 95.960938 L 82.546875 -19.511719 L 149.730469 47.671875 Z M 34.257812 163.144531 " clip-rule="nonzero"/></clipPath><clipPath id="4b20c01db3"><path d="M 49.027344 14.007812 C 67.519531 -4.484375 97.546875 -4.433594 116.101562 14.117188 C 134.652344 32.671875 134.703125 62.699219 116.210938 81.191406 C 63.980469 133.421875 0.925781 129.292969 0.925781 129.292969 C 0.925781 129.292969 -1.863281 64.898438 49.027344 14.007812 Z M 49.027344 14.007812 " clip-rule="nonzero"/></clipPath><clipPath id="9f2752598d"><rect x="0" width="131" y="0" height="130"/></clipPath><clipPath id="4a8ed251ee"><path d="M 71 26 L 186 26 L 186 171 L 71 171 Z M 71 26 " clip-rule="nonzero"/></clipPath><clipPath id="8782746ed5"><path d="M 221.773438 144.785156 L 142.121094 196.582031 L 53.089844 59.683594 L 132.742188 7.882812 Z M 221.773438 144.785156 " clip-rule="nonzero"/></clipPath><clipPath id="4f3932b899"><path d="M 78.933594 99.421875 C 64.675781 77.5 70.949219 48.132812 92.945312 33.828125 C 114.941406 19.523438 144.328125 25.699219 158.585938 47.621094 C 198.855469 109.542969 181.746094 170.371094 181.746094 170.371094 C 181.746094 170.371094 118.171875 159.753906 78.933594 99.421875 Z M 78.933594 99.421875 " clip-rule="nonzero"/></clipPath><clipPath id="e854c5e109"><path d="M 0 0 L 115 0 L 115 144.398438 L 0 144.398438 Z M 0 0 " clip-rule="nonzero"/></clipPath><clipPath id="0a5baf0301"><path d="M 150.773438 118.785156 L 71.121094 170.582031 L -17.910156 33.683594 L 61.742188 -18.117188 Z M 150.773438 118.785156 " clip-rule="nonzero"/></clipPath><clipPath id="c8b7f80116"><path d="M 7.933594 73.421875 C -6.324219 51.5 -0.0507812 22.132812 21.945312 7.828125 C 43.941406 -6.476562 73.328125 -0.300781 87.585938 21.621094 C 127.855469 83.542969 110.746094 144.371094 110.746094 144.371094 C 110.746094 144.371094 47.171875 133.753906 7.933594 73.421875 Z M 7.933594 73.421875 " clip-rule="nonzero"/></clipPath><clipPath id="d445332c10"><rect x="0" width="115" y="0" height="145"/></clipPath><clipPath id="d48fb68665"><path d="M 15 179 L 169 179 L 169 286 L 15 286 Z M 15 179 " clip-rule="nonzero"/></clipPath><clipPath id="d483f785c7"><path d="M 148.390625 146.1875 L 188.492188 232.324219 L 40.449219 301.25 L 0.34375 215.117188 Z M 148.390625 146.1875 " clip-rule="nonzero"/></clipPath><clipPath id="227982cddd"><path d="M 83.417969 281.242188 C 59.714844 292.28125 31.519531 281.945312 20.445312 258.160156 C 9.371094 234.375 19.609375 206.144531 43.316406 195.109375 C 110.277344 163.933594 168.105469 189.414062 168.105469 189.414062 C 168.105469 189.414062 148.664062 250.867188 83.417969 281.242188 Z M 83.417969 281.242188 " clip-rule="nonzero"/></clipPath><clipPath id="cc2ab9169c"><path d="M 0 0 L 153.238281 0 L 153.238281 107 L 0 107 Z M 0 0 " clip-rule="nonzero"/></clipPath><clipPath id="fe0b37b24b"><path d="M 133.390625 -32.8125 L 173.492188 53.324219 L 25.449219 122.25 L -14.65625 36.117188 Z M 133.390625 -32.8125 " clip-rule="nonzero"/></clipPath><clipPath id="f40b556a10"><path d="M 68.417969 102.242188 C 44.714844 113.28125 16.519531 102.945312 5.445312 79.160156 C -5.628906 55.375 4.609375 27.144531 28.316406 16.109375 C 95.277344 -15.066406 153.105469 10.414062 153.105469 10.414062 C 153.105469 10.414062 133.664062 71.867188 68.417969 102.242188 Z M 68.417969 102.242188 " clip-rule="nonzero"/></clipPath><clipPath id="6ead1173c5"><rect x="0" width="154" y="0" height="107"/></clipPath></defs><rect x="-37.5" width="450" fill="#ffffff" y="-37.499999" height="449.999989" fill-opacity="1"/><rect x="-37.5" width="450" fill="#ffffff" y="-37.499999" height="449.999989" fill-opacity="1"/><g clip-path="url(#76d1d0a9d7)"><g clip-path="url(#3d586fe49c)"><g transform="matrix(1, 0, 0, 1, 138, 201)"><g clip-path="url(#f2dcc90de7)"><g clip-path="url(#abacbac786)"><g clip-path="url(#0f6e038acb)"><path fill="#000000" d="M 0.9375 0.886719 L 95.949219 0.886719 L 95.949219 163.820312 L 0.9375 163.820312 Z M 0.9375 0.886719 " fill-opacity="1" fill-rule="nonzero"/></g></g></g></g></g></g><g clip-path="url(#1343de93e0)"><g clip-path="url(#d6b7f5bbf7)"><g clip-path="url(#0850c7e92e)"><g transform="matrix(1, 0, 0, 1, 209, 183)"><g clip-path="url(#59e66ec360)"><g clip-path="url(#52ae6949da)"><g clip-path="url(#1ef753ab1b)"><g clip-path="url(#a307917b65)"><path fill="#000000" d="M -22.558594 46.882812 L 24.46875 -35.675781 L 166.042969 44.964844 L 119.019531 127.523438 Z M -22.558594 46.882812 " fill-opacity="1" fill-rule="nonzero"/></g></g></g></g></g></g></g></g><g clip-path="url(#bd7f8e00f3)"><g clip-path="url(#a6a5cd695d)"><g clip-path="url(#22b9d75a99)"><g transform="matrix(1, 0, 0, 1, 204, 39)"><g clip-path="url(#9f2752598d)"><g clip-path="url(#e029cdc82e)"><g clip-path="url(#28ecc0c03b)"><g clip-path="url(#4b20c01db3)"><path fill="#000000" d="M 34.519531 162.882812 L -32.664062 95.699219 L 82.546875 -19.511719 L 149.730469 47.671875 Z M 34.519531 162.882812 " fill-opacity="1" fill-rule="nonzero"/></g></g></g></g></g></g></g></g><g clip-path="url(#4a8ed251ee)"><g clip-path="url(#8782746ed5)"><g clip-path="url(#4f3932b899)"><g transform="matrix(1, 0, 0, 1, 71, 26)"><g clip-path="url(#d445332c10)"><g clip-path="url(#e854c5e109)"><g clip-path="url(#0a5baf0301)"><g clip-path="url(#c8b7f80116)"><path fill="#000000" d="M 150.570312 118.472656 L 70.917969 170.273438 L -17.910156 33.683594 L 61.742188 -18.117188 Z M 150.570312 118.472656 " fill-opacity="1" fill-rule="nonzero"/></g></g></g></g></g></g></g></g><g clip-path="url(#d48fb68665)"><g clip-path="url(#d483f785c7)"><g clip-path="url(#227982cddd)"><g transform="matrix(1, 0, 0, 1, 15, 179)"><g clip-path="url(#6ead1173c5)"><g clip-path="url(#cc2ab9169c)"><g clip-path="url(#fe0b37b24b)"><g clip-path="url(#f40b556a10)"><path fill="#000000" d="M 133.054688 -32.652344 L 173.15625 53.480469 L 25.449219 122.25 L -14.65625 36.117188 Z M 133.054688 -32.652344 " fill-opacity="1" fill-rule="nonzero"/></g></g></g></g></g></g></g></g></svg>